<svg width="800" height="600" xmlns="http://www.w3.org/2000/svg">
 <g>
  <title>Layer 1</title>
  <path id="svg_10" d="m541.57663,475.58001l17.13362,-55.86779l68.5347,-13.96697l-85.66832,69.83476l-428.33163,0l0,-419.00003l513.99997,0l0,349.16528" fill="#d3dbe5"/>
  <path id="svg_11" d="m598.82992,527.52999l17.26696,-57.73449l69.06805,-14.43365l-86.335,72.16814l-431.66496,0l0,-433.00001l517.99998,0l0,360.83188" fill="#4d99b5"/>
  <path id="svg_12" d="m280.19756,306.88928c0,0 -4.40008,-8.45766 1.75999,-12.13489c6.16007,-3.67711 26.40018,-36.95603 42.24021,-37.50763c0,0 0.88,-33.09494 12.32005,-27.57915c11.44014,5.5159 6.16007,9.92848 6.16007,9.92848c0,0 19.36011,-28.68224 24.64018,3.30949c0,0 5.27998,8.27379 25.52009,-15.44427c20.24011,-23.71806 89.71072,-29.35528 123.20074,14.34118c21.56006,28.13075 51.48022,70.05108 28.16008,108.11032c0,0 13.49943,83.60212 -99.29725,71.04757c0,0 -43.70355,-10.37348 -66.14361,-9.27028c-22.44015,1.10309 -40.92026,10.48008 -29.92017,-2.20641c11.00001,-12.68637 40.48022,-12.68637 80.08044,-3.30949c39.60022,9.37699 102.96054,7.72219 102.96054,-48.53932c0,0 -9.68006,4.4127 -14.08004,1.1032c0,0 2.19995,12.13477 -10.56005,11.03168c-12.76009,-1.1032 -24.64018,-6.06739 -37.84023,1.10309c0,0 -3.96003,3.30961 -5.28007,0c0,0 -6.60002,0 -4.39998,-3.30949c0,0 -3.74001,-1.93055 0,-5.51578c3.74001,-3.58524 29.92017,-3.03375 29.04017,-3.30949c-0.88,-0.27574 0.43995,-3.58524 -1.75999,-3.30949c-2.20004,0.27574 -67.32044,5.24004 -84.48051,-1.1032c0,0 -0.88,7.44645 -4.39998,4.4127c0,0 -32.56025,4.13684 -39.60022,8.82528c-7.04007,4.68855 -4.6201,1.1032 -7.04007,2.20641c-2.42006,1.10309 -5.06005,6.34313 -7.92006,3.30949c0,0 -9.68006,3.03364 -7.04007,-2.20641c0,0 -3.07994,1.37906 -4.39998,-2.20629c0,0 -4.18005,-1.65469 1.75999,-7.72219c5.94005,-6.06739 29.92017,-5.79153 31.68016,-8.82528c1.76008,-3.03375 1.10002,-5.24004 -4.39998,-4.4127c-5.5,0.82734 -16.72012,-1.65469 -25.52018,-8.82528c-8.80006,-7.17059 -5.95229,-10.7362 -24.64009,-13.23809c-15.10672,-2.02242 -18.18675,-4.78032 -22.0001,-6.61899c-3.81344,-1.83856 -8.80006,-12.13477 -8.80006,-12.13477z" fill="#ffffff"/>
 </g>

</svg>